# Blender v2.78 (sub 0) OBJ File: 'tree.blend'
# www.blender.org
o Cylinder
v 0.000000 0.448503 -0.710090
v 0.000000 6.640763 -0.108094
v 0.614956 0.448503 -0.355045
v 0.093613 6.640763 -0.054047
v 0.614956 0.448503 0.355045
v 0.093613 6.640763 0.054047
v -0.000000 0.448503 0.710090
v -0.000000 6.640763 0.108095
v -0.614956 0.448503 0.355045
v -0.093613 6.640763 0.054047
v -0.614956 0.448503 -0.355045
v -0.093613 6.640763 -0.054047
v -0.000000 1.620605 -0.677198
v 0.000000 2.859057 -0.777023
v 0.000000 4.097509 -0.557959
v 0.000000 5.335961 -0.338895
v 0.293492 5.335961 -0.169447
v 0.483207 4.097509 -0.278979
v 0.672922 2.859057 -0.388512
v 0.586471 1.620605 -0.338599
v 0.293492 5.335961 0.169448
v 0.483207 4.097509 0.278980
v 0.672922 2.859057 0.388512
v 0.586471 1.620605 0.338599
v -0.000000 5.335961 0.338895
v -0.000000 4.097509 0.557959
v -0.000000 2.859057 0.777023
v -0.000000 1.620605 0.677198
v -0.293492 5.335961 0.169447
v -0.483207 4.097509 0.278979
v -0.672922 2.859057 0.388512
v -0.586471 1.620605 0.338599
v -0.293492 5.335961 -0.169447
v -0.483207 4.097509 -0.278979
v -0.672922 2.859057 -0.388512
v -0.586471 1.620605 -0.338599
v 0.000000 5.335961 -0.571511
v 0.494943 5.335961 -0.285755
v 0.494943 5.335961 0.285755
v -0.000000 5.335961 0.571511
v -0.494943 5.335961 0.285755
v -0.494943 5.335961 -0.285755
v 0.000000 4.097509 -0.731619
v 0.633600 4.097509 -0.365809
v 0.633600 4.097509 0.365809
v -0.000000 4.097509 0.731619
v -0.633600 4.097509 0.365809
v -0.633600 4.097509 -0.365809
v 0.000000 2.859057 -0.914527
v 0.792004 2.859057 -0.457264
v 0.792004 2.859057 0.457264
v -0.000000 2.859057 0.914527
v -0.792004 2.859057 0.457264
v -0.792004 2.859057 -0.457264
v 0.000000 1.620605 -1.198469
v 1.037904 1.620605 -0.599234
v 1.037904 1.620605 0.599234
v -0.000000 1.620605 1.198469
v -1.037904 1.620605 0.599234
v -1.037904 1.620605 -0.599234
v -0.008937 0.989150 0.629907
vt 0.8877 0.2392
vt 0.8514 0.0937
vt 0.9124 0.0937
vt 0.5827 0.7960
vt 0.5826 0.7956
vt 0.5830 0.7957
vt 0.9314 0.3680
vt 0.8952 0.5135
vt 0.8705 0.3680
vt 0.5823 0.7958
vt 0.5827 0.7960
vt 0.5824 0.7962
vt 0.5827 0.7960
vt 0.5827 0.7959
vt 0.9489 0.2392
vt 0.9126 0.0937
vt 0.9736 0.0937
vt 0.5827 0.7960
vt 0.5831 0.7961
vt 0.5828 0.7964
vt 0.2910 0.2897
vt 0.1931 0.3438
vt 0.2572 0.2480
vt 0.0266 0.1622
vt 0.3171 0.2294
vt 0.7504 0.2313
vt 0.6451 0.0937
vt 0.7729 0.0937
vt 0.5842 0.8037
vt 0.6071 0.8080
vt 0.5918 0.8326
vt 0.8302 0.2306
vt 0.7732 0.0937
vt 0.8512 0.0937
vt 0.0266 0.4394
vt 0.2135 0.2872
vt 0.4460 0.9242
vt 0.6544 0.8475
vt 0.8235 0.9787
vt 0.5170 0.3597
vt 0.6531 0.4382
vt 0.5170 0.4572
vt 0.5820 0.7966
vt 0.5836 0.8017
vt 0.5777 0.8003
vt 0.2590 0.5773
vt 0.5170 0.2316
vt 0.6547 0.3369
vt 0.5170 0.3594
vt 0.4957 0.7213
vt 0.5758 0.8020
vt 0.4872 0.8763
vt 0.8702 0.3889
vt 0.7333 0.4460
vt 0.7333 0.3680
vt 0.4797 0.4160
vt 0.2476 0.3276
vt 0.5992 0.7469
vt 0.8472 0.5853
vt 0.6588 0.7574
vt 0.8503 0.2316
vt 0.7718 0.3677
vt 0.7528 0.2316
vt 0.5825 0.7951
vt 0.5764 0.7936
vt 0.5819 0.7898
vt 0.4804 0.1344
vt 0.6448 0.0937
vt 0.5395 0.2313
vt 0.5170 0.0937
vt 0.5888 0.7914
vt 0.5936 0.7543
vt 0.6094 0.7852
vt 0.7121 0.5049
vt 0.6550 0.3680
vt 0.7330 0.3680
vt 0.2478 -0.0054
vt 0.6108 0.8092
vt 0.6432 0.7864
vt 0.6430 0.8133
vt 0.7525 0.2316
vt 0.6740 0.3677
vt 0.6550 0.2316
vt 0.5877 0.7980
vt 0.5833 0.7954
vt 0.5871 0.7926
vt 0.5835 0.7962
vt 0.5829 0.7968
vt 0.5819 0.7957
vt 0.5895 0.7987
vt 0.5818 0.7873
vt 0.5739 0.7925
vt 0.6139 0.7843
vt 0.4688 0.6802
vt 0.5952 0.8364
vt 0.6558 0.7905
vt 0.6564 0.8102
vt 0.6730 0.7733
vt 0.7402 0.7618
vt 0.7459 0.8432
vt 0.6694 0.8338
vt 0.8761 0.2392
vt 0.9067 0.5135
vt 0.5827 0.7960
vt 0.9374 0.2392
vt 0.6676 0.2313
vt 0.7941 0.2306
vt 0.6531 0.3787
vt 0.6547 0.2541
vt 0.8702 0.4251
vt 0.8313 0.3677
vt 0.6224 0.2313
vt 0.6759 0.5049
vt 0.7335 0.3677
vn 0.4779 0.2940 -0.8278
vn 0.9558 0.2940 0.0000
vn 0.4779 0.2940 0.8278
vn -0.4779 0.2940 0.8278
vn 0.0000 1.0000 0.0000
vn -0.9558 0.2940 0.0000
vn -0.4779 0.2940 -0.8278
vn 0.0000 -1.0000 0.0000
vn -0.4999 0.0243 -0.8658
vn -0.4796 0.2827 -0.8307
vn -0.4851 0.2419 -0.8403
vn -0.4821 0.2648 -0.8351
vn -0.9997 0.0243 0.0000
vn -0.9592 0.2827 0.0000
vn -0.9703 0.2419 0.0000
vn -0.9643 0.2648 0.0000
vn -0.4999 0.0243 0.8658
vn -0.4796 0.2827 0.8307
vn -0.4851 0.2419 0.8403
vn -0.4821 0.2648 0.8351
vn 0.4999 0.0243 0.8658
vn 0.4796 0.2827 0.8307
vn 0.4851 0.2419 0.8403
vn 0.4821 0.2648 0.8351
vn 0.9997 0.0243 0.0000
vn 0.9592 0.2827 0.0000
vn 0.9703 0.2419 0.0000
vn 0.9643 0.2648 -0.0000
vn 0.4999 0.0243 -0.8658
vn 0.4796 0.2827 -0.8307
vn 0.4851 0.2419 -0.8403
vn 0.4821 0.2648 -0.8351
s off
f 2/1/1 38/2/1 37/3/1
f 4/4/2 39/5/2 38/6/2
f 39/7/3 8/8/3 40/9/3
f 40/10/4 10/11/4 41/12/4
f 2/13/5 10/11/5 6/14/5
f 10/15/6 42/16/6 41/17/6
f 12/18/7 37/19/7 42/20/7
f 3/21/8 7/22/8 11/23/8
f 36/24/9 1/25/9 11/23/9
f 35/26/10 55/27/10 60/28/10
f 34/29/11 49/30/11 54/31/11
f 33/32/12 43/33/12 48/34/12
f 32/35/13 11/23/13 9/36/13
f 31/37/14 60/38/14 59/39/14
f 53/40/15 34/41/15 54/42/15
f 29/43/16 48/44/16 47/45/16
f 28/46/17 9/36/17 7/22/17
f 58/47/18 31/48/18 59/49/18
f 52/50/19 30/51/19 53/52/19
f 25/53/20 47/54/20 46/55/20
f 24/56/21 7/22/21 5/57/21
f 23/58/22 58/59/22 57/60/22
f 51/61/23 26/62/23 52/63/23
f 21/64/24 46/65/24 45/66/24
f 20/67/25 5/57/25 3/21/25
f 56/68/26 23/69/26 57/70/26
f 18/71/27 51/72/27 50/73/27
f 17/74/28 45/75/28 44/76/28
f 13/77/29 3/21/29 1/25/29
f 14/78/30 56/79/30 55/80/30
f 49/81/31 18/82/31 50/83/31
f 43/84/32 17/85/32 44/86/32
f 42/20/8 16/87/8 33/88/8
f 41/12/8 33/88/8 29/43/8
f 40/10/8 29/43/8 25/89/8
f 39/5/8 25/89/8 21/64/8
f 17/85/8 39/5/8 21/64/8
f 37/19/8 17/85/8 16/87/8
f 43/84/8 18/71/8 15/90/8
f 18/71/8 45/66/8 22/91/8
f 45/66/8 26/92/8 22/91/8
f 26/92/8 47/45/8 30/51/8
f 47/45/8 34/29/8 30/51/8
f 48/44/8 15/90/8 34/29/8
f 14/78/8 50/73/8 19/93/8
f 50/73/8 23/58/8 19/93/8
f 23/58/8 52/50/8 27/94/8
f 52/50/8 31/37/8 27/94/8
f 31/37/8 54/31/8 35/95/8
f 54/31/8 14/78/8 35/95/8
f 55/80/8 20/96/8 13/97/8
f 56/79/8 24/98/8 20/96/8
f 57/60/8 28/99/8 24/98/8
f 58/59/8 32/100/8 28/99/8
f 59/39/8 36/101/8 32/100/8
f 60/38/8 13/97/8 36/101/8
f 2/1/1 4/102/1 38/2/1
f 4/4/2 6/14/2 39/5/2
f 39/7/3 6/103/3 8/8/3
f 40/10/4 8/104/4 10/11/4
f 6/14/5 4/4/5 2/13/5
f 2/13/5 12/18/5 10/11/5
f 10/11/5 8/104/5 6/14/5
f 10/15/6 12/105/6 42/16/6
f 12/18/7 2/13/7 37/19/7
f 11/23/8 1/25/8 3/21/8
f 3/21/8 5/57/8 7/22/8
f 7/22/8 9/36/8 11/23/8
f 36/24/9 13/77/9 1/25/9
f 35/26/10 14/106/10 55/27/10
f 34/29/11 15/90/11 49/30/11
f 33/32/12 16/107/12 43/33/12
f 32/35/13 36/24/13 11/23/13
f 31/37/14 35/95/14 60/38/14
f 53/40/15 30/108/15 34/41/15
f 29/43/16 33/88/16 48/44/16
f 28/46/17 32/35/17 9/36/17
f 58/47/18 27/109/18 31/48/18
f 52/50/19 26/92/19 30/51/19
f 25/53/20 29/110/20 47/54/20
f 24/56/21 28/46/21 7/22/21
f 23/58/22 27/94/22 58/59/22
f 51/61/23 22/111/23 26/62/23
f 21/64/24 25/89/24 46/65/24
f 20/67/25 24/56/25 5/57/25
f 56/68/26 19/112/26 23/69/26
f 18/71/27 22/91/27 51/72/27
f 17/74/28 21/113/28 45/75/28
f 13/77/29 20/67/29 3/21/29
f 14/78/30 19/93/30 56/79/30
f 49/81/31 15/114/31 18/82/31
f 43/84/32 16/87/32 17/85/32
f 42/20/8 37/19/8 16/87/8
f 41/12/8 42/20/8 33/88/8
f 40/10/8 41/12/8 29/43/8
f 39/5/8 40/10/8 25/89/8
f 17/85/8 38/6/8 39/5/8
f 37/19/8 38/6/8 17/85/8
f 43/84/8 44/86/8 18/71/8
f 18/71/8 44/86/8 45/66/8
f 45/66/8 46/65/8 26/92/8
f 26/92/8 46/65/8 47/45/8
f 47/45/8 48/44/8 34/29/8
f 48/44/8 43/84/8 15/90/8
f 14/78/8 49/30/8 50/73/8
f 50/73/8 51/72/8 23/58/8
f 23/58/8 51/72/8 52/50/8
f 52/50/8 53/52/8 31/37/8
f 31/37/8 53/52/8 54/31/8
f 54/31/8 49/30/8 14/78/8
f 55/80/8 56/79/8 20/96/8
f 56/79/8 57/60/8 24/98/8
f 57/60/8 58/59/8 28/99/8
f 58/59/8 59/39/8 32/100/8
f 59/39/8 60/38/8 36/101/8
f 60/38/8 55/80/8 13/97/8
